<?xml version="1.0"?>
<svg xmlns="http://www.w3.org/2000/svg" xmlns:xlink="http://www.w3.org/1999/xlink" version="1.1" id="Layer_1" x="0px" y="0px" viewBox="0 0 511.988 511.988" style="enable-background:new 0 0 511.988 511.988;" xml:space="preserve" width="512px" height="512px" class="">
	<g>
		<rect x="181.324" y="149.334" style="fill:#AC92EB;" width="149.34" height="298.66" data-original="#AC92EB"/>
		<g>
			<path style="fill:#967ADC;" d="M213.323,266.674c5.891,0,10.672-4.773,10.672-10.664V149.332h-21.328v106.677   C202.667,261.9,207.432,266.674,213.323,266.674z" data-original="#967ADC"/>
			<path style="fill:#967ADC;" d="M277.322,202.659c5.891,0,10.672-4.773,10.672-10.664v-42.663h-21.328v42.663   C266.666,197.886,271.432,202.659,277.322,202.659z" data-original="#967ADC"/>
		</g>
		<rect x="245.324" y="115.344" style="fill:#E6E9ED;" width="21.343" height="33.984" data-original="#E6E9ED"/>
		<!--<path style="fill:#FFCE54;" d="M255.994,117.333c-23.468,0-42.577-18.187-42.577-40.538c0-10.507,6.938-27.194,17.671-42.499  c11.516-16.437,21.921-23.499,24.921-23.632c2.985,0.133,13.375,7.195,24.907,23.632c10.719,15.305,17.656,31.992,17.656,42.499  C298.572,99.146,279.463,117.333,255.994,117.333z" data-original="#FFCE54"/>-->
		<!--<path style="fill:#F6BB42;" d="M255.994,0c-18.03,0-53.232,48.522-53.232,76.795c0,28.281,23.827,51.202,53.232,51.202  c29.407,0,53.235-22.921,53.235-51.202C309.228,48.522,274.025,0,255.994,0z M255.994,106.661  c-17.593,0-31.905-13.398-31.905-29.867c0-6.18,4.171-18.789,13.468-33.03c7.422-11.375,14.452-18.234,18.437-21.195  c3.985,2.96,11.016,9.82,18.438,21.195c9.297,14.242,13.469,26.851,13.469,33.03C287.9,93.264,273.588,106.661,255.994,106.661z" data-original="#F6BB42"/>-->
		<path style="fill:gold" d="M426.662,426.646H85.326c-11.734,0-16.843,8.5-11.343,18.875l25.218,47.623  c5.484,10.359,19.578,18.844,31.312,18.844h250.964c11.734,0,25.827-8.484,31.327-18.844l25.202-47.623  C443.506,435.146,438.396,426.646,426.662,426.646z" data-original="#A0D468" class="active-path"/>
	</g>
</svg>
